:SAMPLES-PER-SECOND 30
:FULLY-SPECIFIED
:DEGREES
1
root  9.11531148 38.92911175 -8.592111482 -4.245669842 -41.44029999 7.284200191
lfemur  -20.82700157 -3.252500296 -16.53309822
ltibia  -1.491570742e-006 -8.364404493e-007 48.20070267
lfoot  5.521815751e-007 -22.40860176 1.922670245
ltoes  -4.250644065 -19.5611806 -102.515957
rfemur  -16.47410202 15.2123003 10.82989883
rtibia  -8.727266732e-007 2.533748784e-007 53.61110306
rfoot  -2.316020982e-006 -32.39459991 -15.1060009
rtoes  5.373923086 19.29304026 -105.8922705
lowerback  10.19489956 0.04777970165 -3.902009964
upperback  2.15850997 -0.4079020023 -0.6479769945
thorax  -3.444560051 -0.1832000017 1.576949954
rclavicle  0 -9.442270133e-015 7.951389973e-016
rhumerus  -28.15069962 26.8302002 -84.959198
rradius  -7.782816926e-012 0.001642658608 99.25209808
rwrist  0.002739921212 0.003270594636 -1.292770147
rthumb  -92.93752616 -24.25625642 -97.11982154
rhand  -7.920061211e-032 -33.2840004 9.303460121
rfingers  -90 -7.125020027 -90
lclavicle  0 -9.442270133e-015 7.951389973e-016
lhumerus  -23.19580078 3.955699921 80.07559967
lradius  1.032090038e-011 -0.003757435596 124.9690018
lwrist  1.816137865e-011 1.409039812e-011 6.43487978
lthumb  89.89689403 5.08795885 91.16245106
lhand  -1.496451383e-031 -27.76390076 20.11240005
lfingers  90 7.125020027 -90
lowerneck  -10.28299999 1.55016005 -5.733670235
upperneck  7.825819969 2.511729956 3.977839947
head  3.887379885 1.285449982 2.303359985
2
root  9.142088702 38.91533379 -8.528222062 -4.566989899 -41.65639877 7.37691021
lfemur  -20.53759193 -2.966049671 -16.70170212
ltibia  -1.491570742e-006 -8.364404493e-007 48.36228561
lfoot  5.521815751e-007 -22.52239227 1.924711466
ltoes  -4.250644065 -19.5611806 -102.515957
rfemur  -16.08109665 15.49100018 10.70049763
rtibia  -8.727266732e-007 2.533748784e-007 53.42908859
rfoot  -2.316020982e-006 -32.41889191 -14.91729736
rtoes  5.373923086 19.29304026 -105.8922705
lowerback  10.74190044 0.2000730038 -4.041190147
upperback  1.872059941 -0.2430379987 -0.4082610011
thorax  -4.053709984 -0.08253840357 1.886309981
rclavicle  0 -9.442270133e-015 7.951389973e-016
rhumerus  -28.28590012 27.18580055 -84.49729919
rradius  -7.782816926e-012 0.001642658608 98.90390015
rwrist  0.002739921212 0.003270594636 -1.219378233
rthumb  -92.93752616 -24.25625642 -97.11982154
rhand  -7.920061211e-032 -33.2840004 9.303460121
rfingers  -90 -7.125020027 -90
lclavicle  0 -9.442270133e-015 7.951389973e-016
lhumerus  -23.77960014 3.869800091 80.70819855
lradius  1.032089952e-011 -0.003757435596 124.697998
lwrist  1.816137865e-011 1.409039812e-011 6.552519798
lthumb  89.89689403 5.08795885 91.16245106
lhand  -1.496451383e-031 -27.76390076 20.11240005
lfingers  90 7.125020027 -90
lowerneck  -9.967359543 1.746230006 -5.744239807
upperneck  8.087650299 2.778529882 3.738090038
head  3.905689955 1.398280025 2.24552989
3
root  9.172067117 38.90777648 -8.460866372 -4.882180214 -41.94509888 7.542709827
lfemur  -20.31310081 -2.485029936 -16.92490005
ltibia  -1.491570742e-006 -8.364404493e-007 48.53290558
lfoot  5.521815751e-007 -22.41410255 1.749780059
ltoes  -4.250644065 -19.5611806 -102.515957
rfemur  -15.77939892 15.75249958 10.48299885
rtibia  -8.727266732e-007 2.533748784e-007 53.23989868
rfoot  -2.316020982e-006 -32.34899902 -14.64330101
rtoes  5.373923086 19.29304026 -105.8922705
lowerback  10.84679985 0.2799220085 -4.028989792
upperback  1.82325995 -0.1394889951 -0.3555719852
thorax  -4.169229984 -0.02817180008 1.92031002
rclavicle  0 -9.442270133e-015 7.951389973e-016
rhumerus  -27.94519997 27.21610069 -84.30549622
rradius  -7.782816926e-012 0.001642658608 98.62609863
rwrist  0.002739921212 0.003270594636 -1.129799962
rthumb  -92.93752616 -24.25625642 -97.11982154
rhand  -7.920061211e-032 -33.2840004 9.303460121
rfingers  -90 -7.125020027 -90
lclavicle  0 -9.442270133e-015 7.951389973e-016
lhumerus  -24.07929993 3.886250019 81.03869629
lradius  1.032090038e-011 -0.003757435596 124.4380035
lwrist  1.816137865e-011 1.409039812e-011 6.485990047
lthumb  89.89689403 5.08795885 91.16245106
lhand  -1.496451383e-031 -27.76390076 20.11240005
lfingers  90 7.125020027 -90
lowerneck  -9.817910194 2.015330076 -5.569789886
upperneck  8.233249664 3.115839958 3.627010107
head  3.9135499 1.561329961 2.202049971
4
root  9.208999844 38.91333332 -8.392733476 -5.091879845 -42.21360016 7.698239803
lfemur  -20.23989487 -1.972349644 -17.14190292
ltibia  -1.491570742e-006 -8.364404493e-007 48.72748947
lfoot  5.521815751e-007 -22.13419151 1.588750601
ltoes  -4.250644065 -19.5611806 -102.515957
rfemur  -15.60439301 15.87050056 10.23149681
rtibia  -8.727266732e-007 2.533748784e-007 53.04498291
rfoot  -2.316020982e-006 -32.1763916 -14.43389797
rtoes  5.373923086 19.29304026 -105.8922705
lowerback  10.58829975 0.2572869956 -3.864360094
upperback  1.94193995 -0.1383299977 -0.4003480077
thorax  -3.902590036 -0.03703660145 1.779839993
rclavicle  0 -9.442270133e-015 7.951389973e-016
rhumerus  -27.24670029 28.00860023 -83.96350098
rradius  -7.782816926e-012 0.001642658608 98.10240173
rwrist  0.002739921212 0.003270594636 -1.539569974
rthumb  -92.93752616 -24.25625642 -97.11982154
rhand  -7.920061211e-032 -33.2840004 9.303460121
rfingers  -90 -7.125020027 -90
lclavicle  0 -9.442270133e-015 7.951389973e-016
lhumerus  -24.15200043 4.09856987 81.18229675
lradius  1.032090038e-011 -0.003757435596 124.1179962
lwrist  1.816137865e-011 1.409039812e-011 6.387599945
lthumb  89.89689403 5.08795885 91.16245106
lhand  -1.496451383e-031 -27.76390076 20.11240005
lfingers  90 7.125020027 -90
lowerneck  -9.805069923 2.385030031 -5.379429817
upperneck  8.304519653 3.573620081 3.726609945
head  3.912519932 1.797979951 2.228369951
5
root  9.249444646 38.94111153 -8.322600117 -5.337709904 -42.54899979 7.902579784
lfemur  -20.17199326 -1.457709789 -17.41470337
ltibia  -1.491570742e-006 -8.364404493e-007 48.95928574
lfoot  5.521815751e-007 -21.91109276 1.766760945
ltoes  -4.250644065 -19.5611806 -102.515957
rfemur  -15.46709251 16.00499916 9.936576843
rtibia  -8.727266732e-007 2.533748784e-007 52.83418655
rfoot  -2.316020982e-006 -31.88109398 -14.32869816
rtoes  5.373923086 19.29304026 -105.8922705
lowerback  10.24409962 0.2761189938 -3.660200119
upperback  2.131190062 -0.07593409717 -0.4888139963
thorax  -3.518860102 -0.01870049909 1.563599944
rclavicle  0 -9.442270133e-015 7.951389973e-016
rhumerus  -26.46279907 28.20999908 -83.77200317
rradius  -7.782816926e-012 0.001642658608 97.87729645
rwrist  0.002739921212 0.003270594636 -1.837470055
rthumb  -92.93752616 -24.25625642 -97.11982154
rhand  -7.920061211e-032 -33.2840004 9.303460121
rfingers  -90 -7.125020027 -90
lclavicle  0 -9.442270133e-015 7.951389973e-016
lhumerus  -24.14640045 4.183239937 81.33039856
lradius  1.032090038e-011 -0.003757435596 123.8700027
lwrist  1.816137865e-011 1.409039812e-011 6.209440231
lthumb  89.89689403 5.08795885 91.16245106
lhand  -1.496451383e-031 -27.76390076 20.11240005
lfingers  90 7.125020027 -90
lowerneck  -9.741519928 2.74090004 -5.137390137
upperneck  8.230810165 4.00909996 3.78392005
head  3.862390041 2.024139881 2.228579998
